<svg xmlns="http://www.w3.org/2000/svg" xmlns:xlink="http://www.w3.org/1999/xlink" width="25" height="26" viewBox="0 0 25 26">
  <defs>
    <clipPath id="clip-path">
      <rect id="Rectangle_78" data-name="Rectangle 78" width="25" height="25" fill="none"/>
    </clipPath>
    <clipPath id="clip-path-2">
      <rect id="Rectangle_2147" data-name="Rectangle 2147" width="21.287" height="26" fill="none"/>
    </clipPath>
  </defs>
  <g id="Group_4034" data-name="Group 4034" transform="translate(-327 -503)">
    <g id="Group_3939" data-name="Group 3939" transform="translate(0 -71)">
      <g id="Group_123" data-name="Group 123" transform="translate(327 575)">
        <g id="Group_95" data-name="Group 95" transform="translate(0 0)" clip-path="url(#clip-path)">
          <path id="Path_867" data-name="Path 867" d="M25,12.5A12.5,12.5,0,1,1,12.5,0,12.5,12.5,0,0,1,25,12.5" transform="translate(0 0)" fill="#ecbb40"/>
        </g>
      </g>
    </g>
    <g id="Group_4033" data-name="Group 4033" transform="translate(329 503)">
      <g id="Group_4032" data-name="Group 4032" transform="translate(0 0)" clip-path="url(#clip-path-2)">
        <path id="Path_5825" data-name="Path 5825" d="M1.872,18.667a14.139,14.139,0,0,1,.487-3.08,13.748,13.748,0,0,0,.285-1.72,6.091,6.091,0,0,0-.632-2.828C1.5,9.762.971,8.492.5,7.2a7.471,7.471,0,0,1-.477-3.24A4.334,4.334,0,0,1,2.3.415,3.637,3.637,0,0,1,4.9.1c1.04.211,2.073.47,3.1.753a10.5,10.5,0,0,0,5.86-.143A24.633,24.633,0,0,1,16.4.1a4.1,4.1,0,0,1,4.874,3.855A8.9,8.9,0,0,1,20.628,7.7c-.421,1.132-.867,2.256-1.362,3.358a6.5,6.5,0,0,0-.349,4.536,14.892,14.892,0,0,1,.459,2.465,7.474,7.474,0,0,1-1.656,5.358,8.476,8.476,0,0,1-2.245,2.117,4.152,4.152,0,0,1-.883.418c-.45.15-.646-.033-.552-.5.082-.406.2-.806.31-1.2a9.607,9.607,0,0,0,.492-3.376A6.817,6.817,0,0,0,12.748,16.4a2.9,2.9,0,0,0-2.286-.907,2.95,2.95,0,0,0-1.617.65,6.314,6.314,0,0,0-1.77,2.351,6.824,6.824,0,0,0-.392,4.733c.158.658.351,1.307.521,1.962a2.027,2.027,0,0,1,.066.474c0,.246-.115.369-.353.324a2.678,2.678,0,0,1-.738-.248,7.777,7.777,0,0,1-2.361-2.016,8.056,8.056,0,0,1-1.887-4.206c-.033-.281-.04-.566-.06-.849" transform="translate(0 0)" fill="#0083d0"/>
      </g>
    </g>
  </g>
</svg>
