<?xml version="1.0" encoding="UTF-8"?>
<svg version="1.1" viewBox="0 0 2048 1362" width="1280" height="1280" xmlns="http://www.w3.org/2000/svg">
<path transform="translate(0)" d="m0 0h2048v1362h-2048z" fill="#FEFEFE"/>
<path transform="translate(593,664)" d="m0 0h14l8 4 5 4 9 12 16 29 12 21 11 16 10 13 12 13 11 11 14 11 14 10 21 12 19 9 24 9 23 7 24 6-4-13-8-10-10-9-16-11-28-17-19-12-13-10-9-9-5-8-2-7 1-10 4-8 4-5 8-5 4-1h9l13 4 16 8 21 13 18 12 21 13 18 10 23 11 39 13 16 8 11 7 11 9 12 11 9 11 11 15 11 20 8 20 6 21 3 16v10h2v-10l4-20 6-20 9-21 11-19 13-17 13-14 11-9 10-7 16-9 16-6 20-6 21-9 25-13 21-13 32-21 19-11 15-6 5-1h9l8 3 6 5 5 8 2 7-1 10-4 8-9 10-8 7-18 12-28 17-17 11-14 11-9 10-4 8-2 8 28-7 36-12 24-11 20-11 17-12 10-8 12-11 11-11 11-14 10-14 12-20 13-24 11-18 10-10 8-4h14l9 3 1 5-11 35-11 30-15 33-13 24-12 19-16 21-10 11-7 8-13 12-13 10-19 12-16 7-56 22-29 13-25 12-20 11-19 12-14 10-11 9-10 9-12 12-13 17-10 18-6 16-4 15-9-5-13-12-9-10-9-14-8-17-5-17-2-11v-10h-2v10l-4 19-6 16-9 17-10 13-12 12-13 9-2-2-5-19-8-18-9-14-8-10-9-10-12-12-14-11-14-10-21-13-24-13-25-12-33-14-46-18-18-8-14-9-13-10-14-12-8-8-7-8-12-15-12-17-13-22-12-23-13-30-12-34-8-26 1-5z" fill="#234066"/>
<path transform="translate(751,503)" d="m0 0h26l17 4 16 7 24 14 26 15 24 14 28 16 26 15 22 13 10 8 11 11 9 14 5 11 4 13 2 13v15l-3 17-6 16-8 13-11 13-14 11-16 8-16 5-6 1h-25l-14-3-13-5-22-12-24-14-52-30-24-14-28-16-12-8-12-11-9-12-8-16-4-12-2-11v-23l3-14 5-13 7-13 9-11 9-9 14-9 13-6 14-4z" fill="#84C245"/>
<path transform="translate(1271,503)" d="m0 0h25l14 3 13 5 13 7 11 9 8 8 9 13 7 15 4 14 1 6v23l-4 18-7 16-8 12-11 12-12 9-28 16-24 14-26 15-28 16-24 14-23 13-12 5-16 4h-26l-17-4-16-7-13-9-10-9-10-13-8-16-4-13-2-13v-15l3-17 5-14 7-13 8-10 11-11 15-10 25-14 24-14 78-45 21-12 13-5z" fill="#84C245"/>
<path transform="translate(977,300)" d="m0 0h94l1 1v95h96v96h-96v96h-96v-96h-96v-95l1-1h95v-95z" fill="#018EDE"/>
<path transform="translate(755,517)" d="m0 0h18l15 3 14 6 24 14 26 15 22 13 1 2-13 23-11 19-14 24-30 52-9 15h-3l-23-13-24-14-26-15-9-7-11-11-8-13-6-16-2-12v-15l3-15 5-12 7-12 11-12 13-9 13-6z" fill="#FEFEFE"/>
<path transform="translate(1275,517)" d="m0 0h18l17 4 16 8 11 8 10 11 8 14 4 10 3 16v14l-3 15-6 15-8 12-13 13-13 8-52 30-15 9-4-4-16-28-14-24-45-78 4-4 23-13 24-14 26-15 14-5z" fill="#FEFEFE"/>
<path transform="translate(1216,378)" d="m0 0h14l10 5 7 8 3 7v14l-5 10-9 8-10 3h-7l-11-4-7-6-5-9-1-5v-8l4-11 5-6 9-5z" fill="#84C245"/>
<path transform="translate(835,446)" d="m0 0h11l8 4 6 9 1 3v9l-4 8-7 6-6 2h-7l-8-3-7-8-2-5v-9l4-9 8-6z" fill="#84C245"/>
<path transform="translate(1197,484)" d="m0 0 10 2 7 8 1 3v8l-4 7-5 4-3 1h-8l-8-4-4-6-1-8 3-8 6-5z" fill="#84C245"/>
<path transform="translate(1104,350)" d="m0 0h8l6 3 4 5 2 8-2 7-5 5-3 2h-11l-6-4-4-7v-7l3-6 6-5z" fill="#84C245"/>
<path transform="translate(932,342)" d="m0 0h7l6 3 4 5 1 2v10l-4 6-8 4-9-1-6-5-2-4v-10l4-6 4-3z" fill="#84C245"/>
<path transform="translate(937,528)" d="m0 0 9 1 6 5 2 4v9l-4 6-4 3-3 1h-7l-6-4-4-5v-11l6-7z" fill="#84C245"/>
<path transform="translate(842,360)" d="m0 0h8l5 4 2 5-1 6-4 5-2 1h-8l-5-3-2-4v-7l5-6z" fill="#84C245"/>
<path transform="translate(887,292)" d="m0 0h9l6 6v8l-5 6-2 1h-7l-6-5-1-2v-8l4-5z" fill="#84C245"/>
<path transform="translate(1140,309)" d="m0 0h8l5 4 1 2v8l-5 6-7 1-6-3-3-6 1-7z" fill="#84C245"/>
<path transform="translate(1116,526)" d="m0 0h6l4 4 1 6-4 5-5 1-5-3-2-3 1-7z" fill="#84C245"/>
</svg>
