<?xml version="1.0" encoding="utf-8"?>
<!-- Generator: Adobe Illustrator 23.0.1, SVG Export Plug-In . SVG Version: 6.00 Build 0)  -->
<svg version="1.1" id="Layer_1" xmlns="http://www.w3.org/2000/svg" xmlns:xlink="http://www.w3.org/1999/xlink" x="0px" y="0px"
	 viewBox="0 0 20.5 19" style="enable-background:new 0 0 20.5 19;" xml:space="preserve">
<ellipse style="stroke:#000000;stroke-miterlimit:10;" cx="10.3" cy="9.5" rx="9.8" ry="9"/>
<g id="Group_1517" transform="translate(0 0)">
	<g>
		<defs>
			<rect id="SVGID_1_" x="4" y="3.5" width="12" height="12"/>
		</defs>
		<clipPath id="SVGID_2_">
			<use xlink:href="#SVGID_1_"  style="overflow:visible;"/>
		</clipPath>
		<g id="Group_89" transform="translate(0 0)" style="clip-path:url(#SVGID_2_);">
			<path id="Path_862" style="fill:#EDBC40;" d="M13.1,11.5c-0.3-0.3-0.8-0.4-1.2-0.1c0,0-0.1,0.1-0.1,0.1c-0.3,0.3-0.6,0.6-0.9,0.9
				c-0.1,0.1-0.2,0.1-0.2,0c0,0,0,0,0,0c-0.2-0.1-0.4-0.2-0.6-0.3c-0.8-0.5-1.6-1.2-2.2-2C7.6,9.7,7.3,9.3,7.1,8.8
				c0-0.1,0-0.2,0-0.2C7.4,8.3,7.7,8,8,7.7c0.4-0.3,0.4-0.8,0.1-1.2c0,0-0.1-0.1-0.1-0.1C7.8,6.2,7.5,6,7.3,5.7S6.8,5.3,6.6,5
				C6.3,4.7,5.8,4.7,5.4,5c0,0-0.1,0-0.1,0.1C5,5.3,4.8,5.6,4.5,5.9C4.2,6.2,4,6.5,4,6.9c0,0.6,0.1,1.2,0.3,1.8
				c0.5,1.2,1.1,2.2,1.9,3.2c1.1,1.3,2.4,2.3,3.9,3c0.7,0.3,1.4,0.6,2.2,0.6c0.5,0.1,1-0.1,1.4-0.5c0.3-0.3,0.5-0.5,0.8-0.8
				c0.4-0.3,0.4-0.8,0.1-1.2c0,0-0.1-0.1-0.1-0.1C14,12.4,13.6,11.9,13.1,11.5"/>
			<path id="Path_863" style="fill:#EDBC40;" d="M12.7,9.4l0.9-0.2c-0.3-1.8-1.7-3.1-3.5-3.4L10,6.8C11.3,7,12.4,8,12.7,9.4"/>
			<path id="Path_864" style="fill:#EDBC40;" d="M14.1,5.4c-1.1-1-2.4-1.7-3.9-1.9l-0.1,0.9c2.5,0.3,4.6,2.3,5,4.8L16,9.1
				C15.8,7.7,15.1,6.4,14.1,5.4"/>
		</g>
	</g>
</g>
</svg>
